<?xml version="1.0" encoding="iso-8859-1"?>
<!-- Generator: Adobe Illustrator 16.0.0, SVG Export Plug-In . SVG Version: 6.00 Build 0)  -->
<!DOCTYPE svg PUBLIC "-//W3C//DTD SVG 1.1//EN" "http://www.w3.org/Graphics/SVG/1.1/DTD/svg11.dtd">
<svg version="1.1" id="Capa_1" xmlns="http://www.w3.org/2000/svg" xmlns:xlink="http://www.w3.org/1999/xlink" x="0px" y="0px"
	 width="364.198px" height="364.198px" viewBox="0 0 364.198 364.198" style="enable-background:new 0 0 364.198 364.198;"
	 xml:space="preserve">
<g>
	<g>
		<path d="M143.583,275.521c0-59.095,48.083-107.169,107.166-107.169c4.378,0,8.671,0.344,12.915,0.855V66.737
			c0-0.006,0-0.006,0-0.012s0-0.006,0-0.012v-6.311h-6.887l0.012,0.088H57.512c-13.226,0-19.406-10.994-19.948-22.387
			c-0.024-0.542-0.106-1.078-0.106-1.626c0-11.947,6.199-24.006,20.055-24.006h193.681c0.226,0,0.408-0.106,0.627-0.125
			c3.143-0.332,5.614-2.887,5.614-6.111c0-3.446-2.789-6.235-6.235-6.235H57.512C38.669,0,24.987,15.344,24.987,36.483
			c0,0.612,0.052,1.197,0.076,1.796v292.312c0,18.561,15.046,33.606,33.609,33.606h131.982
			C162.27,344.89,143.583,312.355,143.583,275.521z"/>
		<path d="M263.664,188.111c-4.232-0.627-8.513-1.053-12.915-1.053c-48.774,0-88.46,39.683-88.46,88.463
			c0,48.787,39.686,88.47,88.46,88.47c4.396,0,8.683-0.433,12.915-1.054c42.66-6.284,75.548-43.025,75.548-87.416
			C339.211,231.145,306.331,194.39,263.664,188.111z M198.917,326.579l7.088-20.818l13.731,13.73L198.917,326.579z M263.664,284.887
			l-27.742,27.742l-23.182-23.188l50.924-50.924l0.725-0.73l23.188,23.182L263.664,284.887z M295.041,253.637l-23.188-23.181
			l13.786-13.786l23.188,23.182L295.041,253.637z"/>
	</g>
</g>
<g>
</g>
<g>
</g>
<g>
</g>
<g>
</g>
<g>
</g>
<g>
</g>
<g>
</g>
<g>
</g>
<g>
</g>
<g>
</g>
<g>
</g>
<g>
</g>
<g>
</g>
<g>
</g>
<g>
</g>
</svg>
